<mxfile host="Electron" modified="2023-09-28T12:53:03.480Z" agent="Mozilla/5.0 (Windows NT 10.0; Win64; x64) AppleWebKit/537.36 (KHTML, like Gecko) draw.io/21.7.5 Chrome/114.0.5735.289 Electron/25.8.1 Safari/537.36" etag="_sPOTtYYxoYi_wzr98KH" version="21.7.5" type="device">
  <diagram name="Page-1" id="gb3nUjgNKGSTyeAmfYYd">
    <mxGraphModel dx="1668" dy="965" grid="1" gridSize="10" guides="1" tooltips="1" connect="1" arrows="1" fold="1" page="1" pageScale="1" pageWidth="1169" pageHeight="827" math="0" shadow="0">
      <root>
        <mxCell id="0" />
        <mxCell id="1" parent="0" />
        <mxCell id="-d-Xi2LO6ykJWY6tHqgX-1" value="medecin" style="shape=table;startSize=30;container=1;collapsible=1;childLayout=tableLayout;fixedRows=1;rowLines=0;fontStyle=1;align=center;resizeLast=1;html=1;" parent="1" vertex="1">
          <mxGeometry x="200" y="160" width="200" height="150" as="geometry" />
        </mxCell>
        <mxCell id="-d-Xi2LO6ykJWY6tHqgX-2" value="" style="shape=tableRow;horizontal=0;startSize=0;swimlaneHead=0;swimlaneBody=0;fillColor=none;collapsible=0;dropTarget=0;points=[[0,0.5],[1,0.5]];portConstraint=eastwest;top=0;left=0;right=0;bottom=1;" parent="-d-Xi2LO6ykJWY6tHqgX-1" vertex="1">
          <mxGeometry y="30" width="200" height="30" as="geometry" />
        </mxCell>
        <mxCell id="-d-Xi2LO6ykJWY6tHqgX-3" value="PK" style="shape=partialRectangle;connectable=0;fillColor=none;top=0;left=0;bottom=0;right=0;fontStyle=1;overflow=hidden;whiteSpace=wrap;html=1;" parent="-d-Xi2LO6ykJWY6tHqgX-2" vertex="1">
          <mxGeometry width="70" height="30" as="geometry">
            <mxRectangle width="70" height="30" as="alternateBounds" />
          </mxGeometry>
        </mxCell>
        <mxCell id="-d-Xi2LO6ykJWY6tHqgX-4" value="medecinID" style="shape=partialRectangle;connectable=0;fillColor=none;top=0;left=0;bottom=0;right=0;align=left;spacingLeft=6;fontStyle=5;overflow=hidden;whiteSpace=wrap;html=1;" parent="-d-Xi2LO6ykJWY6tHqgX-2" vertex="1">
          <mxGeometry x="70" width="130" height="30" as="geometry">
            <mxRectangle width="130" height="30" as="alternateBounds" />
          </mxGeometry>
        </mxCell>
        <mxCell id="-d-Xi2LO6ykJWY6tHqgX-5" value="" style="shape=tableRow;horizontal=0;startSize=0;swimlaneHead=0;swimlaneBody=0;fillColor=none;collapsible=0;dropTarget=0;points=[[0,0.5],[1,0.5]];portConstraint=eastwest;top=0;left=0;right=0;bottom=0;" parent="-d-Xi2LO6ykJWY6tHqgX-1" vertex="1">
          <mxGeometry y="60" width="200" height="40" as="geometry" />
        </mxCell>
        <mxCell id="-d-Xi2LO6ykJWY6tHqgX-6" value="varChar(20)" style="shape=partialRectangle;connectable=0;fillColor=none;top=0;left=0;bottom=0;right=0;editable=1;overflow=hidden;whiteSpace=wrap;html=1;" parent="-d-Xi2LO6ykJWY6tHqgX-5" vertex="1">
          <mxGeometry width="70" height="40" as="geometry">
            <mxRectangle width="70" height="40" as="alternateBounds" />
          </mxGeometry>
        </mxCell>
        <mxCell id="-d-Xi2LO6ykJWY6tHqgX-7" value="medecinNom" style="shape=partialRectangle;connectable=0;fillColor=none;top=0;left=0;bottom=0;right=0;align=left;spacingLeft=6;overflow=hidden;whiteSpace=wrap;html=1;" parent="-d-Xi2LO6ykJWY6tHqgX-5" vertex="1">
          <mxGeometry x="70" width="130" height="40" as="geometry">
            <mxRectangle width="130" height="40" as="alternateBounds" />
          </mxGeometry>
        </mxCell>
        <mxCell id="-d-Xi2LO6ykJWY6tHqgX-8" value="" style="shape=tableRow;horizontal=0;startSize=0;swimlaneHead=0;swimlaneBody=0;fillColor=none;collapsible=0;dropTarget=0;points=[[0,0.5],[1,0.5]];portConstraint=eastwest;top=0;left=0;right=0;bottom=0;" parent="-d-Xi2LO6ykJWY6tHqgX-1" vertex="1">
          <mxGeometry y="100" width="200" height="50" as="geometry" />
        </mxCell>
        <mxCell id="-d-Xi2LO6ykJWY6tHqgX-9" value="varChar(20)" style="shape=partialRectangle;connectable=0;fillColor=none;top=0;left=0;bottom=0;right=0;editable=1;overflow=hidden;whiteSpace=wrap;html=1;" parent="-d-Xi2LO6ykJWY6tHqgX-8" vertex="1">
          <mxGeometry width="70" height="50" as="geometry">
            <mxRectangle width="70" height="50" as="alternateBounds" />
          </mxGeometry>
        </mxCell>
        <mxCell id="-d-Xi2LO6ykJWY6tHqgX-10" value="medecinPrneom" style="shape=partialRectangle;connectable=0;fillColor=none;top=0;left=0;bottom=0;right=0;align=left;spacingLeft=6;overflow=hidden;whiteSpace=wrap;html=1;" parent="-d-Xi2LO6ykJWY6tHqgX-8" vertex="1">
          <mxGeometry x="70" width="130" height="50" as="geometry">
            <mxRectangle width="130" height="50" as="alternateBounds" />
          </mxGeometry>
        </mxCell>
        <mxCell id="-d-Xi2LO6ykJWY6tHqgX-14" value="patient" style="shape=table;startSize=30;container=1;collapsible=1;childLayout=tableLayout;fixedRows=1;rowLines=0;fontStyle=1;align=center;resizeLast=1;html=1;" parent="1" vertex="1">
          <mxGeometry x="760" y="160" width="200" height="150" as="geometry">
            <mxRectangle x="600" y="40" width="110" height="30" as="alternateBounds" />
          </mxGeometry>
        </mxCell>
        <mxCell id="-d-Xi2LO6ykJWY6tHqgX-15" value="" style="shape=tableRow;horizontal=0;startSize=0;swimlaneHead=0;swimlaneBody=0;fillColor=none;collapsible=0;dropTarget=0;points=[[0,0.5],[1,0.5]];portConstraint=eastwest;top=0;left=0;right=0;bottom=1;" parent="-d-Xi2LO6ykJWY6tHqgX-14" vertex="1">
          <mxGeometry y="30" width="200" height="30" as="geometry" />
        </mxCell>
        <mxCell id="-d-Xi2LO6ykJWY6tHqgX-16" value="PK" style="shape=partialRectangle;connectable=0;fillColor=none;top=0;left=0;bottom=0;right=0;fontStyle=1;overflow=hidden;whiteSpace=wrap;html=1;" parent="-d-Xi2LO6ykJWY6tHqgX-15" vertex="1">
          <mxGeometry width="110" height="30" as="geometry">
            <mxRectangle width="110" height="30" as="alternateBounds" />
          </mxGeometry>
        </mxCell>
        <mxCell id="-d-Xi2LO6ykJWY6tHqgX-17" value="patientID" style="shape=partialRectangle;connectable=0;fillColor=none;top=0;left=0;bottom=0;right=0;align=left;spacingLeft=6;fontStyle=5;overflow=hidden;whiteSpace=wrap;html=1;" parent="-d-Xi2LO6ykJWY6tHqgX-15" vertex="1">
          <mxGeometry x="110" width="90" height="30" as="geometry">
            <mxRectangle width="90" height="30" as="alternateBounds" />
          </mxGeometry>
        </mxCell>
        <mxCell id="-d-Xi2LO6ykJWY6tHqgX-18" value="" style="shape=tableRow;horizontal=0;startSize=0;swimlaneHead=0;swimlaneBody=0;fillColor=none;collapsible=0;dropTarget=0;points=[[0,0.5],[1,0.5]];portConstraint=eastwest;top=0;left=0;right=0;bottom=0;" parent="-d-Xi2LO6ykJWY6tHqgX-14" vertex="1">
          <mxGeometry y="60" width="200" height="40" as="geometry" />
        </mxCell>
        <mxCell id="-d-Xi2LO6ykJWY6tHqgX-19" value="varChar(20)" style="shape=partialRectangle;connectable=0;fillColor=none;top=0;left=0;bottom=0;right=0;editable=1;overflow=hidden;whiteSpace=wrap;html=1;" parent="-d-Xi2LO6ykJWY6tHqgX-18" vertex="1">
          <mxGeometry width="110" height="40" as="geometry">
            <mxRectangle width="110" height="40" as="alternateBounds" />
          </mxGeometry>
        </mxCell>
        <mxCell id="-d-Xi2LO6ykJWY6tHqgX-20" value="patientNom" style="shape=partialRectangle;connectable=0;fillColor=none;top=0;left=0;bottom=0;right=0;align=left;spacingLeft=6;overflow=hidden;whiteSpace=wrap;html=1;" parent="-d-Xi2LO6ykJWY6tHqgX-18" vertex="1">
          <mxGeometry x="110" width="90" height="40" as="geometry">
            <mxRectangle width="90" height="40" as="alternateBounds" />
          </mxGeometry>
        </mxCell>
        <mxCell id="-d-Xi2LO6ykJWY6tHqgX-21" value="" style="shape=tableRow;horizontal=0;startSize=0;swimlaneHead=0;swimlaneBody=0;fillColor=none;collapsible=0;dropTarget=0;points=[[0,0.5],[1,0.5]];portConstraint=eastwest;top=0;left=0;right=0;bottom=0;" parent="-d-Xi2LO6ykJWY6tHqgX-14" vertex="1">
          <mxGeometry y="100" width="200" height="50" as="geometry" />
        </mxCell>
        <mxCell id="-d-Xi2LO6ykJWY6tHqgX-22" value="varChar(20)" style="shape=partialRectangle;connectable=0;fillColor=none;top=0;left=0;bottom=0;right=0;editable=1;overflow=hidden;whiteSpace=wrap;html=1;" parent="-d-Xi2LO6ykJWY6tHqgX-21" vertex="1">
          <mxGeometry width="110" height="50" as="geometry">
            <mxRectangle width="110" height="50" as="alternateBounds" />
          </mxGeometry>
        </mxCell>
        <mxCell id="-d-Xi2LO6ykJWY6tHqgX-23" value="patientPrenom" style="shape=partialRectangle;connectable=0;fillColor=none;top=0;left=0;bottom=0;right=0;align=left;spacingLeft=6;overflow=hidden;whiteSpace=wrap;html=1;" parent="-d-Xi2LO6ykJWY6tHqgX-21" vertex="1">
          <mxGeometry x="110" width="90" height="50" as="geometry">
            <mxRectangle width="90" height="50" as="alternateBounds" />
          </mxGeometry>
        </mxCell>
        <mxCell id="-d-Xi2LO6ykJWY6tHqgX-27" value="medicament" style="shape=table;startSize=30;container=1;collapsible=1;childLayout=tableLayout;fixedRows=1;rowLines=0;fontStyle=1;align=center;resizeLast=1;html=1;" parent="1" vertex="1">
          <mxGeometry x="480" y="554" width="200" height="100" as="geometry" />
        </mxCell>
        <mxCell id="-d-Xi2LO6ykJWY6tHqgX-28" value="" style="shape=tableRow;horizontal=0;startSize=0;swimlaneHead=0;swimlaneBody=0;fillColor=none;collapsible=0;dropTarget=0;points=[[0,0.5],[1,0.5]];portConstraint=eastwest;top=0;left=0;right=0;bottom=1;" parent="-d-Xi2LO6ykJWY6tHqgX-27" vertex="1">
          <mxGeometry y="30" width="200" height="30" as="geometry" />
        </mxCell>
        <mxCell id="-d-Xi2LO6ykJWY6tHqgX-29" value="PK" style="shape=partialRectangle;connectable=0;fillColor=none;top=0;left=0;bottom=0;right=0;fontStyle=1;overflow=hidden;whiteSpace=wrap;html=1;" parent="-d-Xi2LO6ykJWY6tHqgX-28" vertex="1">
          <mxGeometry width="90" height="30" as="geometry">
            <mxRectangle width="90" height="30" as="alternateBounds" />
          </mxGeometry>
        </mxCell>
        <mxCell id="-d-Xi2LO6ykJWY6tHqgX-30" value="medicamentID" style="shape=partialRectangle;connectable=0;fillColor=none;top=0;left=0;bottom=0;right=0;align=left;spacingLeft=6;fontStyle=5;overflow=hidden;whiteSpace=wrap;html=1;" parent="-d-Xi2LO6ykJWY6tHqgX-28" vertex="1">
          <mxGeometry x="90" width="110" height="30" as="geometry">
            <mxRectangle width="110" height="30" as="alternateBounds" />
          </mxGeometry>
        </mxCell>
        <mxCell id="-d-Xi2LO6ykJWY6tHqgX-31" value="" style="shape=tableRow;horizontal=0;startSize=0;swimlaneHead=0;swimlaneBody=0;fillColor=none;collapsible=0;dropTarget=0;points=[[0,0.5],[1,0.5]];portConstraint=eastwest;top=0;left=0;right=0;bottom=0;" parent="-d-Xi2LO6ykJWY6tHqgX-27" vertex="1">
          <mxGeometry y="60" width="200" height="40" as="geometry" />
        </mxCell>
        <mxCell id="-d-Xi2LO6ykJWY6tHqgX-32" value="varChar(20)" style="shape=partialRectangle;connectable=0;fillColor=none;top=0;left=0;bottom=0;right=0;editable=1;overflow=hidden;whiteSpace=wrap;html=1;" parent="-d-Xi2LO6ykJWY6tHqgX-31" vertex="1">
          <mxGeometry width="90" height="40" as="geometry">
            <mxRectangle width="90" height="40" as="alternateBounds" />
          </mxGeometry>
        </mxCell>
        <mxCell id="-d-Xi2LO6ykJWY6tHqgX-33" value="medicamentNom" style="shape=partialRectangle;connectable=0;fillColor=none;top=0;left=0;bottom=0;right=0;align=left;spacingLeft=6;overflow=hidden;whiteSpace=wrap;html=1;" parent="-d-Xi2LO6ykJWY6tHqgX-31" vertex="1">
          <mxGeometry x="90" width="110" height="40" as="geometry">
            <mxRectangle width="110" height="40" as="alternateBounds" />
          </mxGeometry>
        </mxCell>
        <mxCell id="-d-Xi2LO6ykJWY6tHqgX-42" value="achete" style="ellipse;whiteSpace=wrap;html=1;align=center;" parent="1" vertex="1">
          <mxGeometry x="810" y="584" width="100" height="40" as="geometry" />
        </mxCell>
        <mxCell id="-d-Xi2LO6ykJWY6tHqgX-45" value="" style="endArrow=none;html=1;rounded=0;" parent="1" source="-d-Xi2LO6ykJWY6tHqgX-27" target="-d-Xi2LO6ykJWY6tHqgX-42" edge="1">
          <mxGeometry relative="1" as="geometry">
            <mxPoint x="490" y="614" as="sourcePoint" />
            <mxPoint x="360" y="614" as="targetPoint" />
          </mxGeometry>
        </mxCell>
        <mxCell id="-d-Xi2LO6ykJWY6tHqgX-64" value="0;1" style="edgeLabel;html=1;align=center;verticalAlign=middle;resizable=0;points=[];" parent="-d-Xi2LO6ykJWY6tHqgX-45" vertex="1" connectable="0">
          <mxGeometry relative="1" as="geometry">
            <mxPoint y="15" as="offset" />
          </mxGeometry>
        </mxCell>
        <mxCell id="-d-Xi2LO6ykJWY6tHqgX-46" value="" style="endArrow=none;html=1;rounded=0;" parent="1" source="-d-Xi2LO6ykJWY6tHqgX-14" target="-d-Xi2LO6ykJWY6tHqgX-42" edge="1">
          <mxGeometry relative="1" as="geometry">
            <mxPoint x="690" y="614" as="sourcePoint" />
            <mxPoint x="820" y="614" as="targetPoint" />
          </mxGeometry>
        </mxCell>
        <mxCell id="-d-Xi2LO6ykJWY6tHqgX-63" value="0;N" style="edgeLabel;html=1;align=center;verticalAlign=middle;resizable=0;points=[];" parent="-d-Xi2LO6ykJWY6tHqgX-46" vertex="1" connectable="0">
          <mxGeometry y="1" relative="1" as="geometry">
            <mxPoint x="15" as="offset" />
          </mxGeometry>
        </mxCell>
        <mxCell id="-d-Xi2LO6ykJWY6tHqgX-52" value="" style="endArrow=none;html=1;rounded=0;" parent="1" source="-d-Xi2LO6ykJWY6tHqgX-1" edge="1">
          <mxGeometry relative="1" as="geometry">
            <mxPoint x="710" y="350" as="sourcePoint" />
            <mxPoint x="530" y="235" as="targetPoint" />
          </mxGeometry>
        </mxCell>
        <mxCell id="-d-Xi2LO6ykJWY6tHqgX-54" value="1;N" style="edgeLabel;html=1;align=center;verticalAlign=middle;resizable=0;points=[];" parent="-d-Xi2LO6ykJWY6tHqgX-52" vertex="1" connectable="0">
          <mxGeometry relative="1" as="geometry">
            <mxPoint y="-15" as="offset" />
          </mxGeometry>
        </mxCell>
        <mxCell id="-d-Xi2LO6ykJWY6tHqgX-55" value="" style="endArrow=none;html=1;rounded=0;" parent="1" source="-d-Xi2LO6ykJWY6tHqgX-60" target="-d-Xi2LO6ykJWY6tHqgX-14" edge="1">
          <mxGeometry relative="1" as="geometry">
            <mxPoint x="630" y="235" as="sourcePoint" />
            <mxPoint x="870" y="350" as="targetPoint" />
          </mxGeometry>
        </mxCell>
        <mxCell id="-d-Xi2LO6ykJWY6tHqgX-59" value="1;1" style="edgeLabel;html=1;align=center;verticalAlign=middle;resizable=0;points=[];" parent="-d-Xi2LO6ykJWY6tHqgX-55" vertex="1" connectable="0">
          <mxGeometry relative="1" as="geometry">
            <mxPoint y="-15" as="offset" />
          </mxGeometry>
        </mxCell>
        <mxCell id="-d-Xi2LO6ykJWY6tHqgX-56" value="prescrit" style="ellipse;whiteSpace=wrap;html=1;align=center;" parent="1" vertex="1">
          <mxGeometry x="250" y="584" width="100" height="40" as="geometry" />
        </mxCell>
        <mxCell id="-d-Xi2LO6ykJWY6tHqgX-57" value="" style="endArrow=none;html=1;rounded=0;" parent="1" source="-d-Xi2LO6ykJWY6tHqgX-1" target="-d-Xi2LO6ykJWY6tHqgX-56" edge="1">
          <mxGeometry relative="1" as="geometry">
            <mxPoint x="710" y="350" as="sourcePoint" />
            <mxPoint x="870" y="350" as="targetPoint" />
          </mxGeometry>
        </mxCell>
        <mxCell id="-d-Xi2LO6ykJWY6tHqgX-76" value="1;N" style="edgeLabel;html=1;align=center;verticalAlign=middle;resizable=0;points=[];" parent="-d-Xi2LO6ykJWY6tHqgX-57" vertex="1" connectable="0">
          <mxGeometry relative="1" as="geometry">
            <mxPoint x="-15" as="offset" />
          </mxGeometry>
        </mxCell>
        <mxCell id="-d-Xi2LO6ykJWY6tHqgX-58" value="" style="endArrow=none;html=1;rounded=0;" parent="1" source="-d-Xi2LO6ykJWY6tHqgX-27" target="-d-Xi2LO6ykJWY6tHqgX-56" edge="1">
          <mxGeometry relative="1" as="geometry">
            <mxPoint x="310" y="320" as="sourcePoint" />
            <mxPoint x="310" y="594" as="targetPoint" />
          </mxGeometry>
        </mxCell>
        <mxCell id="-d-Xi2LO6ykJWY6tHqgX-67" value="1;N" style="edgeLabel;html=1;align=center;verticalAlign=middle;resizable=0;points=[];" parent="-d-Xi2LO6ykJWY6tHqgX-58" vertex="1" connectable="0">
          <mxGeometry relative="1" as="geometry">
            <mxPoint y="15" as="offset" />
          </mxGeometry>
        </mxCell>
        <mxCell id="-d-Xi2LO6ykJWY6tHqgX-60" value="consulte&lt;br&gt;heur&lt;br&gt;date&lt;br&gt;lieu" style="ellipse;whiteSpace=wrap;html=1;align=center;points=[[0,0.5,0,0,0],[0,1,0,0,0],[0.06,0.27,0,0,0],[0.5,0,0,0,0],[0.5,1,0,0,0],[0.96,0.27,0,0,0],[1,0.5,0,0,0],[1,1,0,0,0]];" parent="1" vertex="1">
          <mxGeometry x="510" y="200" width="140" height="70" as="geometry" />
        </mxCell>
        <mxCell id="-d-Xi2LO6ykJWY6tHqgX-62" value="" style="endArrow=none;html=1;rounded=0;exitX=0.06;exitY=0.27;exitDx=0;exitDy=0;exitPerimeter=0;entryX=0.96;entryY=0.27;entryDx=0;entryDy=0;entryPerimeter=0;" parent="1" source="-d-Xi2LO6ykJWY6tHqgX-60" target="-d-Xi2LO6ykJWY6tHqgX-60" edge="1">
          <mxGeometry width="50" height="50" relative="1" as="geometry">
            <mxPoint x="495" y="320" as="sourcePoint" />
            <mxPoint x="745" y="310" as="targetPoint" />
          </mxGeometry>
        </mxCell>
        <mxCell id="ogCSjny4jdHRsI7WwTaN-1" value="" style="endArrow=none;html=1;rounded=0;" edge="1" parent="1">
          <mxGeometry width="50" height="50" relative="1" as="geometry">
            <mxPoint y="800" as="sourcePoint" />
            <mxPoint x="1160" as="targetPoint" />
            <Array as="points">
              <mxPoint x="1160" y="800" />
            </Array>
          </mxGeometry>
        </mxCell>
        <mxCell id="ogCSjny4jdHRsI7WwTaN-3" value="&lt;p style=&quot;line-height: 300%; font-size: 51px;&quot;&gt;MCD&lt;/p&gt;" style="text;html=1;strokeColor=none;fillColor=none;align=center;verticalAlign=middle;whiteSpace=wrap;rounded=0;fontSize=51;" vertex="1" parent="1">
          <mxGeometry x="505" y="720" width="160" height="80" as="geometry" />
        </mxCell>
      </root>
    </mxGraphModel>
  </diagram>
</mxfile>
